<svg xmlns="http://www.w3.org/2000/svg" xmlns:xlink="http://www.w3.org/1999/xlink" viewBox="0 0 531.71 196.14"><defs><style>.cls-1{fill:url(#Безымянный_градиент_20);}.cls-2{fill:#1d242d;}.cls-3{fill:#1c232d;}</style><radialGradient id="Безымянный_градиент_20" cx="9.9" cy="358.97" r="0.26" gradientTransform="matrix(0, 384.67, 384.12, 0, -137802.52, -3710.59)" gradientUnits="userSpaceOnUse"><stop offset="0" stop-color="#da037a"/><stop offset="1" stop-color="#ae2674"/></radialGradient></defs><title>Ресурс 3</title><g id="Слой_2" data-name="Слой 2"><g id="Слой_1-2" data-name="Слой 1"><polygon class="cls-1" points="110.17 14.36 85.22 0 30.04 31.79 100.63 72.61 110.17 72.61 110.17 14.36"/><polygon class="cls-1" points="0.06 147.1 54.55 178.46 54.55 128.29 0.06 128.29 0.06 147.1"/><polygon class="cls-1" points="78.69 68.35 22.76 35.93 0 49.03 0 72.61 71.28 72.61 78.69 68.35"/><polygon class="cls-1" points="170.37 49.03 117.44 18.56 117.44 72.61 170.37 72.61 170.37 49.03"/><polygon class="cls-1" points="93.24 132.43 144.66 161.9 170.37 147.1 170.37 128.29 100.43 128.29 93.24 132.43"/><polygon class="cls-1" points="61.83 182.66 85.22 196.14 137.38 166.1 85.97 136.63 71.5 128.29 61.83 128.29 61.83 182.66"/><path id="Path_953" data-name="Path 953" class="cls-2" d="M223.22,130.29V67.1h33.19q11.83,0,17.65,5.69a13.86,13.86,0,0,1,4.16,10.38q0,9.84-10,14.08a20.81,20.81,0,0,1,9.57,5.69q3.29,3.69,3.28,9.93a14.89,14.89,0,0,1-6.47,12.77q-6.47,4.65-18,4.65Zm17.47-14.09h13.87q8.6,0,8.59-6,0-5.69-8.78-5.69H240.69Zm0-23.91H252q8.5,0,8.5-5.69,0-5.41-8.13-5.42H240.69Zm48,38V81.45h17.56v48.84ZM288.3,77V67.1h18.3V77Zm24,53.26,22.18-32.14L313.26,67.1h20.62l11.46,17.78L356.89,67.1h20.16L355.79,98,378,130.29H357.36l-12.39-19-12.48,19Zm72.38,0V67.1h33.19q11.83,0,17.65,5.69a13.86,13.86,0,0,1,4.16,10.38q0,9.84-10,14.08a20.81,20.81,0,0,1,9.57,5.69q3.29,3.69,3.28,9.93a14.89,14.89,0,0,1-6.47,12.77q-6.47,4.65-18,4.65Zm17.47-14.09h13.87q8.6,0,8.6-6,0-5.69-8.78-5.69H402.19Zm0-23.91h11.28q8.5,0,8.51-5.69,0-5.41-8.14-5.42H402.19Zm48,38V81.45h17.57v48.84ZM449.8,77V67.1h18.31V77Zm44.56,53.26V82.45H475V67.1h56.76V82.45H512.29v47.84Z"/><path class="cls-3" d="M13.64,122.61V87.44H.22v-9H36.77v9H23.35v35.17Z"/><path class="cls-3" d="M44.21,122.61V78.49H77.49v8.63H53.86v8.95h20.8v8.64H53.86V114h24v8.63Z"/><path class="cls-3" d="M107.12,123.37A21.73,21.73,0,0,1,91,116.78a22.26,22.26,0,0,1-6.46-16.23,22.4,22.4,0,0,1,23-22.82,22.36,22.36,0,0,1,9.64,1.86,27.81,27.81,0,0,1,7.44,5.33l-5.8,6.68a22.21,22.21,0,0,0-5.33-3.75,14.08,14.08,0,0,0-6-1.17,11.84,11.84,0,0,0-9.17,4,15.2,15.2,0,0,0,0,19.69,11.8,11.8,0,0,0,9.17,4,13.87,13.87,0,0,0,6.12-1.26,24.07,24.07,0,0,0,5.48-3.91l6.18,6.62a23.68,23.68,0,0,1-7.79,5.67A25.72,25.72,0,0,1,107.12,123.37Z"/><path class="cls-3" d="M133,122.61V78.49h9.71V96h17.9V78.49h9.7v44.12h-9.7V104.9h-17.9v17.71Z"/></g></g></svg>